<svg width="50" height="50" viewBox="0 0 50 50" fill="none" xmlns="http://www.w3.org/2000/svg">
	<path fill-rule="evenodd" clip-rule="evenodd" d="M24.7972 14.4621C23.9086 14.4621 23.1746 15.196 23.1746 16.0846V23.8977C23.1746 24.7863 23.9086 25.5203 24.7972 25.5203H25.4145C26.3072 25.5203 27.0371 24.7999 27.0371 23.8977V16.0846C27.0371 15.196 26.3031 14.4621 25.4145 14.4621H24.7972ZM21.4109 16.0846C21.4109 14.222 22.9345 12.6984 24.7972 12.6984H25.4145C27.2772 12.6984 28.8007 14.222 28.8007 16.0846V23.8977C28.8007 25.7821 27.2731 27.2839 25.4145 27.2839H24.7972C22.9345 27.2839 21.4109 25.7604 21.4109 23.8977V16.0846Z" fill="#0082B9"/>
	<path fill-rule="evenodd" clip-rule="evenodd" d="M19.806 33.3862C19.806 32.8992 20.2008 32.5044 20.6878 32.5044H29.4885C29.9756 32.5044 30.3704 32.8992 30.3704 33.3862C30.3704 33.8732 29.9756 34.2681 29.4885 34.2681H20.6878C20.2008 34.2681 19.806 33.8732 19.806 33.3862Z" fill="#0082B9"/>
	<path fill-rule="evenodd" clip-rule="evenodd" d="M25.0794 28.8007C25.5664 28.8007 25.9612 29.1955 25.9612 29.6825V32.7337C25.9612 33.2207 25.5664 33.6155 25.0794 33.6155C24.5924 33.6155 24.1975 33.2207 24.1975 32.7337V29.6825C24.1975 29.1955 24.5924 28.8007 25.0794 28.8007Z" fill="#0082B9"/>
	<path fill-rule="evenodd" clip-rule="evenodd" d="M19.418 20.5996C19.905 20.5996 20.2998 20.9944 20.2998 21.4815V23.774L20.2973 23.8061L20.297 23.8101L20.2954 23.842C20.294 23.873 20.2925 23.9228 20.2923 23.9887C20.292 24.1208 20.2975 24.3156 20.3213 24.5515C20.3694 25.0282 20.4899 25.6468 20.7697 26.2529C21.0467 26.8525 21.4748 27.4313 22.1443 27.8648C22.8129 28.2977 23.7815 28.6243 25.2028 28.6243C25.6899 28.6243 26.0847 29.0191 26.0847 29.5061C26.0847 29.9932 25.6899 30.388 25.2028 30.388C23.5025 30.388 22.1872 29.9937 21.1857 29.3452C20.1852 28.6974 19.5574 27.8344 19.1685 26.9922C18.7826 26.1565 18.6275 25.3333 18.5665 24.7286C18.5358 24.4239 18.5283 24.1681 18.5287 23.9848C18.5289 23.893 18.531 23.8189 18.5334 23.7655C18.5343 23.7436 18.5353 23.7251 18.5362 23.7103V21.4815C18.5362 20.9944 18.931 20.5996 19.418 20.5996Z" fill="#0082B9"/>
	<path fill-rule="evenodd" clip-rule="evenodd" d="M30.7937 20.5996C31.2807 20.5996 31.6755 20.9944 31.6755 21.4815V23.7101C31.6764 23.7248 31.6773 23.743 31.6783 23.7646C31.6807 23.8177 31.6829 23.8915 31.6833 23.9829C31.6841 24.1654 31.6774 24.4204 31.6483 24.7242C31.5906 25.3269 31.4422 26.148 31.0698 26.9821C30.6948 27.822 30.0864 28.6873 29.1105 29.3385C28.1324 29.9913 26.8462 30.388 25.1852 30.388C24.6982 30.388 24.3034 29.9932 24.3034 29.5061C24.3034 29.0191 24.6982 28.6243 25.1852 28.6243C26.5577 28.6243 27.4893 28.3001 28.1315 27.8715C28.7761 27.4414 29.1906 26.8649 29.4593 26.263C29.7307 25.6553 29.8468 25.0346 29.8927 24.556C29.9154 24.3191 29.9203 24.1235 29.9197 23.9906C29.9194 23.9243 29.9178 23.8742 29.9164 23.8429L29.9147 23.8105L29.9145 23.808L29.9144 23.8062L29.9118 23.774V21.4815C29.9118 20.9944 30.3066 20.5996 30.7937 20.5996Z" fill="#0082B9"/>
	<path fill-rule="evenodd" clip-rule="evenodd" d="M17.6897 7.30037C16.815 7.30037 16.0925 8.13655 16.0925 9.14898V40.2337C16.0925 41.2462 16.815 42.0824 17.6897 42.0824H32.1868C33.0696 42.0824 33.7841 41.2571 33.7841 40.2538V9.14898C33.7841 8.13655 33.0616 7.30037 32.1868 7.30037H17.6897ZM14.3563 9.14898C14.3563 7.02682 15.8561 5.29102 17.6897 5.29102H32.1868C34.0205 5.29102 35.5203 7.02682 35.5203 9.14898V40.2538C35.5203 42.3852 34.0125 44.0917 32.1868 44.0917H17.6897C15.8561 44.0917 14.3563 42.3559 14.3563 40.2337V9.14898Z" fill="#0082B9"/>
	<path fill-rule="evenodd" clip-rule="evenodd" d="M24.947 38.8875C25.2538 38.8875 25.5025 38.5996 25.5025 38.2445C25.5025 37.8894 25.2538 37.6015 24.947 37.6015C24.6401 37.6015 24.3914 37.8894 24.3914 38.2445C24.3914 38.5996 24.6401 38.8875 24.947 38.8875ZM23.7664 38.2445C23.7664 37.4899 24.2949 36.8782 24.947 36.8782C25.599 36.8782 26.1276 37.4899 26.1276 38.2445C26.1276 38.9991 25.599 39.6109 24.947 39.6109C24.2949 39.6109 23.7664 38.9991 23.7664 38.2445Z" fill="#0082B9"/>
	<path fill-rule="evenodd" clip-rule="evenodd" d="M40.5052 10.5052C40.8496 10.1608 41.4079 10.1608 41.7523 10.5052C44.6716 13.4245 44.6716 18.1275 41.7523 21.0468C41.4079 21.3912 40.8496 21.3912 40.5052 21.0468C40.1608 20.7024 40.1608 20.1441 40.5052 19.7997C42.7358 17.5691 42.7358 13.9829 40.5052 11.7523C40.1608 11.4079 40.1608 10.8496 40.5052 10.5052Z" fill="#0082B9"/>
	<path fill-rule="evenodd" clip-rule="evenodd" d="M43.1154 7.91258C43.4598 7.5682 44.0181 7.5682 44.3625 7.91258C48.7104 12.2605 48.7104 19.3091 44.3625 23.657C44.0181 24.0014 43.4598 24.0014 43.1154 23.657C42.771 23.3127 42.771 22.7543 43.1154 22.4099C46.7746 18.7508 46.7746 12.8188 43.1154 9.15968C42.771 8.8153 42.771 8.25696 43.1154 7.91258Z" fill="#0082B9"/>
	<path fill-rule="evenodd" clip-rule="evenodd" d="M37.5599 12.1983C37.9042 11.8539 38.4626 11.8539 38.807 12.1983C40.7916 14.1829 40.7916 17.3691 38.807 19.3537C38.4626 19.6981 37.9042 19.6981 37.5599 19.3537C37.2155 19.0093 37.2155 18.451 37.5599 18.1066C38.8557 16.8108 38.8557 14.7412 37.5599 13.4454C37.2155 13.101 37.2155 12.5427 37.5599 12.1983Z" fill="#0082B9"/>
	<path fill-rule="evenodd" clip-rule="evenodd" d="M9.47716 10.5052C9.82154 10.8496 9.82154 11.4079 9.47716 11.7523C7.24658 13.9829 7.24658 17.5691 9.47716 19.7997C9.82154 20.1441 9.82154 20.7024 9.47716 21.0468C9.13278 21.3912 8.57444 21.3912 8.23006 21.0468C5.31072 18.1275 5.31072 13.4245 8.23006 10.5052C8.57444 10.1608 9.13278 10.1608 9.47716 10.5052Z" fill="#0082B9"/>
	<path fill-rule="evenodd" clip-rule="evenodd" d="M6.86693 7.89494C7.21131 8.23932 7.21131 8.79767 6.86693 9.14204C3.20778 12.8012 3.20778 18.7331 6.86693 22.3923C7.21131 22.7367 7.21131 23.295 6.86693 23.6394C6.52255 23.9838 5.96421 23.9838 5.61983 23.6394C1.27193 19.2915 1.27193 12.2428 5.61983 7.89494C5.96421 7.55056 6.52255 7.55056 6.86693 7.89494Z" fill="#0082B9"/>
	<path fill-rule="evenodd" clip-rule="evenodd" d="M12.4401 12.1983C12.7845 12.5427 12.7845 13.101 12.4401 13.4454C11.1443 14.7412 11.1443 16.8108 12.4401 18.1066C12.7845 18.451 12.7845 19.0093 12.4401 19.3537C12.0958 19.6981 11.5374 19.6981 11.193 19.3537C9.20844 17.3691 9.20844 14.1829 11.193 12.1983C11.5374 11.8539 12.0958 11.8539 12.4401 12.1983Z" fill="#0082B9"/>
</svg>
